<svg xmlns="http://www.w3.org/2000/svg" width="126.045" height="57.676" viewBox="0 0 126.045 57.676"><g transform="translate(-126.7 -125.8)"><path d="M142.815,163.125l8.487,8.487h19.581V125.8H154.442v8.472L145.97,125.8H126.7v45.812h16.115Zm9.213,7.909,12.264-13.345,5.88,13.345Zm18.263-1.2L164.721,157.2l5.569-28.408Zm-.133-43.442-5.851,29.815-9.272-21.358v-8.443h15.123Zm-15.419,9.257,9.3,21.432-12.664,13.775-8.413-8.413Zm-9.42-9.257-12.1,19.625-5.762-19.625Zm-18.026,1.585,5.525,18.766L127.292,168.9Zm14.93,43.057H127.367l5.851-23.521,9.005,15.2Zm.222-9.109-8.991-15.182L145.9,126.57l8.457,8.457L142.5,161.984Z" transform="translate(0 0)"/><path d="M505.134,171.627l12.042-8.754,4.577-14.071.03-.089L517.2,134.642l-.03-.089-11.968-8.694-.074-.059H490.248l-12.042,8.754-4.606,14.16,4.606,14.16,11.968,8.694.074.059Zm-.533-.592H490.885l16.559-13.212Zm.667-.237L508.1,157.63l8.294,5.08Zm15.878-22.084-4.384,13.523-8.442-5.169,8.576-21.462Zm-16.2-22.321,11.627,8.443L507.9,156.489l-17.137-30.1ZM490.426,127l16.87,29.608-20.07-8.043ZM478.7,134.924l11.153-8.1-3.214,21.6H474.311Zm0,27.579-4.384-13.493H486.59l3.362,21.669Zm8.531-13.3,20.01,8.013-16.707,13.33Z" transform="translate(-295.519)"/><path d="M867.807,125.8H848.7v45.812h19.107Zm-.889.592-4.932,12.531-12.293-12.531Zm-17.64.43,12.486,12.723-3.481,15.7-9.005,3.94Zm0,33,8.517-3.732-8.517,14.175Zm.237,11.212,9.02-14.989,8.487,14.989Zm17.7-.874-8.354-14.752,3.318-14.93,5.036,12.9Zm0-18.425-4.8-12.279,4.8-12.2Z" transform="translate(-615.061 0)"/><path d="M160.926,480.944h1.851v-.607h-1.851v-1.629h2.1V478.1H160.2v5.377h2.888v-.607h-2.162Z" transform="translate(-28.538 -300.119)"/><path d="M364.388,478.1h-.829l-2.118,2.562V478.1H360.7v5.377h.741v-2.785l2.192,2.785h.9l-2.281-2.859Z" transform="translate(-199.341 -300.119)"/><path d="M507.7,478.707h1.526v4.769h.726v-4.769h1.526V478.1H507.7Z" transform="translate(-324.568 -300.119)"/><rect width="0.741" height="5.391" transform="translate(187.975 177.981)"/><rect width="0.741" height="5.391" transform="translate(241.281 177.981)"/><path d="M745.8,478.707h1.511v4.769h.741v-4.769h1.526V478.1H745.8Z" transform="translate(-527.402 -300.119)"/><path d="M127,478.707h1.511v4.769h.741v-4.769h1.526V478.1H127Z" transform="translate(-0.256 -300.119)"/><path d="M226.644,480.337h-2.918V478.1H223v5.377h.726v-2.518h2.918v2.518h.741V478.1h-.741Z" transform="translate(-82.037 -300.119)"/><path d="M188.666,482.362a1.962,1.962,0,0,1-1.9-2.207,1.934,1.934,0,0,1,1.881-2.148,1.912,1.912,0,0,1,1.185.355l.355-.548a2.665,2.665,0,0,0-1.526-.415,2.788,2.788,0,0,0-.015,5.569,2.586,2.586,0,0,0,1.644-.548l-.326-.518a1.922,1.922,0,0,1-1.3.459" transform="translate(-50.517 -299.523)"/><path d="M265.537,478.1H264.1v5.391h.741v-2.133h.592c1.274,0,2.029-.592,2.029-1.674s-.829-1.585-1.925-1.585m-.089,2.651h-.607v-2.059h.637c.9,0,1.244.4,1.244,1.007,0,.7-.385,1.052-1.274,1.052" transform="translate(-117.049 -300.119)"/><path d="M290.259,478.1l-2.059,5.391h.726l.459-1.274h2.4l.474,1.274h.8l-2.074-5.391Zm-.652,3.51.652-1.733c.148-.415.237-.681.311-.933h.015c.074.222.148.474.326.933l.637,1.733Z" transform="translate(-137.579 -300.119)"/><path d="M329.451,481.225a1.508,1.508,0,0,0,1.111-1.54c0-1.066-.829-1.585-1.926-1.585H327.2v5.391h.741v-2.148h.563a.448.448,0,0,1,.222.059,3.736,3.736,0,0,1,.681.829l.859,1.244h.844l-1.17-1.659a6.373,6.373,0,0,0-.489-.592m-.9-.474h-.607v-2.059h.637c.9,0,1.244.4,1.244,1.007-.015.7-.385,1.052-1.274,1.052" transform="translate(-170.803 -300.119)"/><path d="M408.551,479.84c-.548-.252-.978-.474-.978-.992,0-.474.385-.755.9-.755a1.709,1.709,0,0,1,1.1.37l.341-.533a2.286,2.286,0,0,0-1.452-.43,1.453,1.453,0,0,0-1.6,1.392c0,.859.578,1.215,1.229,1.54.622.311,1.229.563,1.229,1.17a.945.945,0,0,1-1.052.859,1.672,1.672,0,0,1-1.215-.459l-.355.518a2.283,2.283,0,0,0,1.555.548c1.081,0,1.792-.607,1.792-1.481,0-1.037-.785-1.407-1.5-1.748" transform="translate(-238.528 -299.608)"/><path d="M443.759,469.918a.474.474,0,0,0,.474-.459.467.467,0,1,0-.474.459" transform="translate(-269.707 -292.367)"/><path d="M454.159,469.918a.459.459,0,1,0-.459-.459.471.471,0,0,0,.459.459" transform="translate(-278.567 -292.367)"/><path d="M441.025,481.477a1.3,1.3,0,0,1-1.377,1.481c-.978,0-1.422-.5-1.422-1.585V478.1H437.5v3.362a2.1,2.1,0,1,0,4.206-.044v-3.3h-.681Z" transform="translate(-264.766 -300.119)"/><path d="M477.133,478.1H475.8v5.391h1.289c2.148,0,3.1-1.2,3.1-2.755s-.933-2.636-3.051-2.636m.03,4.784h-.622v-4.192h.578c1.57,0,2.311.637,2.311,2.044a1.975,1.975,0,0,1-2.266,2.148" transform="translate(-297.393 -300.119)"/><path d="M559.151,481.225a1.508,1.508,0,0,0,1.111-1.54c0-1.066-.829-1.585-1.926-1.585H556.9v5.391h.741v-2.148h.563a.448.448,0,0,1,.222.059,3.738,3.738,0,0,1,.681.829l.859,1.244h.844l-1.17-1.659a6.376,6.376,0,0,0-.489-.592m-.918-.474h-.607v-2.059h.637c.9,0,1.244.4,1.244,1.007,0,.7-.37,1.052-1.274,1.052" transform="translate(-366.481 -300.119)"/><path d="M727.026,478.1H726.3v5.377h2.829v-.607h-2.1Z" transform="translate(-510.79 -300.119)"/><path d="M687.859,478.1l-2.059,5.391h.726l.459-1.274h2.4l.474,1.274h.8l-2.074-5.391Zm-.637,3.51.652-1.733c.148-.415.237-.681.311-.933h.015c.074.222.148.474.326.933l.637,1.733Z" transform="translate(-476.289 -300.119)"/><path d="M588.466,477.4a2.795,2.795,0,1,0,2.681,2.785,2.64,2.64,0,0,0-2.681-2.785m0,4.977a2.208,2.208,0,1,1,1.9-2.177,1.96,1.96,0,0,1-1.9,2.177" transform="translate(-391.101 -299.523)"/><path d="M662.8,483.477h.667l1.94-5.377h-.652Z" transform="translate(-456.696 -300.119)"/><path d="M631.626,478.1H630.9v5.377h2.829v-.607h-2.1Z" transform="translate(-429.521 -300.119)"/><path d="M863.733,478.1H862.4v5.391h1.289c2.148,0,3.1-1.2,3.1-2.755s-.933-2.636-3.051-2.636m.03,4.784h-.622v-4.192h.578c1.57,0,2.311.637,2.311,2.044a1.981,1.981,0,0,1-2.266,2.148" transform="translate(-626.732 -300.119)"/><path d="M775.966,477.4a2.795,2.795,0,1,0,2.681,2.785,2.64,2.64,0,0,0-2.681-2.785m0,4.977a2.208,2.208,0,1,1,1.9-2.177,1.939,1.939,0,0,1-1.9,2.177" transform="translate(-550.829 -299.523)"/><path d="M824.559,478.1l-2.059,5.391h.726l.459-1.274h2.4l.474,1.274h.8l-2.074-5.391Zm-.637,3.51.652-1.733c.148-.415.237-.681.311-.933h.015c.074.222.148.474.326.933l.637,1.733Z" transform="translate(-592.742 -300.119)"/><path d="M956.226,482.869v-1.925h1.851v-.607h-1.851v-1.629h2.118V478.1H955.5v5.377h2.9v-.607Z" transform="translate(-706.043 -300.119)"/><path d="M916.444,480.544h1.126v1.422a2.148,2.148,0,0,1-1.259.311,1.972,1.972,0,0,1-1.955-2.207,1.942,1.942,0,0,1,1.97-2.148,2.031,2.031,0,0,1,1.363.43l.37-.548a2.71,2.71,0,0,0-1.7-.5,2.785,2.785,0,0,0-.045,5.569,3.193,3.193,0,0,0,2-.548v-2.4h-1.851v.622Z" transform="translate(-670.349 -299.438)"/></g></svg>