<svg xmlns="http://www.w3.org/2000/svg" viewBox="0 0 364 336"><defs><style>.cls-1{fill:none;}.cls-2{fill:#00c9e5;}.cls-3{fill:#0f0026;}.cls-4{fill:#ff27b7;}.cls-5{fill:#ffee4d;}.cls-6{fill:#6024b5;}</style></defs><g id="Sfondo"><rect class="cls-1" width="364" height="336"/></g><g id="LOGO"><path class="cls-2" d="M214.24,164.67A29.16,29.16,0,0,0,188.56,196,70.12,70.12,0,0,0,236,171,29.1,29.1,0,0,0,214.24,164.67Z"/><path class="cls-3" d="M130.77,157.33a21.64,21.64,0,0,0-18-18.86,70,70,0,0,0,15.1,32.47A21.54,21.54,0,0,0,130.77,157.33Z"/><path class="cls-4" d="M156.77,147.8l-23.64,28.8a70.1,70.1,0,0,0,37.15,18.75l17.88-21.79Z"/><path class="cls-5" d="M214,157.65l29.28,2.65A69.88,69.88,0,0,0,252.21,126a71,71,0,0,0-1-11.84l-33-3Z"/><path class="cls-4" d="M217.62,65.49a69.74,69.74,0,0,0-30-9.49l3.11,15.06Z"/><path class="cls-3" d="M249.19,105.64a70,70,0,0,0-14.36-25.85l-1.21,25.1Z"/><path class="cls-2" d="M168.51,95,145.18,66.12a70.21,70.21,0,0,0-33.39,55.51l9.38,11.61Z"/><circle class="cls-3" cx="181.92" cy="126.04" r="28" transform="translate(-4.14 245.88) rotate(-67.5)"/><circle class="cls-6" cx="212.71" cy="88.14" r="16.38" transform="translate(-10.84 143.27) rotate(-36.36)"/><path class="cls-5" d="M161.18,75a12.4,12.4,0,1,1,13.75,10.88A12.39,12.39,0,0,1,161.18,75Z"/><path class="cls-6" d="M141.75,149.56A9.4,9.4,0,1,1,150,139.14,9.4,9.4,0,0,1,141.75,149.56Z"/><path class="cls-3" d="M135.85,278.28H119.78V225.73h15.54v6c2.85-5,9.3-7.4,14.69-7.4,13.22,0,19.14,9.41,19.14,20.93v33H153.08V248c0-5.18-2.75-9.09-8.56-9.09-5.29,0-8.67,3.91-8.67,9.2Z"/><path class="cls-3" d="M182.68,278.28V225.73h16.07v52.55Z"/><path class="cls-3" d="M246.22,241.59a21.87,21.87,0,0,0-5.07-.53c-6.45,0-12.27,3.81-12.27,14.28v22.94H212.81V225.73h15.55v7.08c2.74-5.92,9.41-7.61,13.64-7.61a15.68,15.68,0,0,1,4.22.53Z"/><path class="cls-3" d="M84,224a28,28,0,1,0,28,28A28,28,0,0,0,84,224Zm0,41a13,13,0,1,1,13-13A13,13,0,0,1,84,265Z"/><path class="cls-3" d="M280,224a28,28,0,1,0,28,28A28,28,0,0,0,280,224Zm0,41a13,13,0,1,1,13-13A13,13,0,0,1,280,265Z"/></g></svg>