<?xml version="1.0" encoding="UTF-8" standalone="no"?>
<svg
   viewBox="0 0 420.56 140"
   version="1.1"
   id="svg191"
   sodipodi:docname="ONIRO-Masterbrand-horizontal.svg"
   width="420.56"
   height="140"
   inkscape:version="1.1 (c68e22c387, 2021-05-23)"
   xmlns:inkscape="http://www.inkscape.org/namespaces/inkscape"
   xmlns:sodipodi="http://sodipodi.sourceforge.net/DTD/sodipodi-0.dtd"
   xmlns="http://www.w3.org/2000/svg"
   xmlns:svg="http://www.w3.org/2000/svg">
  <sodipodi:namedview
     id="namedview193"
     pagecolor="#ffffff"
     bordercolor="#666666"
     borderopacity="1.0"
     inkscape:pageshadow="2"
     inkscape:pageopacity="0.0"
     inkscape:pagecheckerboard="0"
     showgrid="false"
     inkscape:zoom="2.7631579"
     inkscape:cx="210.44762"
     inkscape:cy="70.028571"
     inkscape:window-width="1920"
     inkscape:window-height="1051"
     inkscape:window-x="3840"
     inkscape:window-y="0"
     inkscape:window-maximized="1"
     inkscape:current-layer="svg191" />
  <defs
     id="defs153">
    <style
       id="style151">.cls-1{fill:none;}.cls-2{fill:#00c9e5;}.cls-3{fill:#0f0026;}.cls-4{fill:#ff27b7;}.cls-5{fill:#ffee4d;}.cls-6{fill:#6024b5;}</style>
  </defs>
  <g
     id="Sfondo"
     transform="translate(-55.72,-56)">
    <rect
       class="cls-1"
       width="532"
       height="252"
       id="rect155"
       x="0"
       y="0" />
  </g>
  <g
     id="LOGO"
     transform="translate(-55.72,-56)">
    <path
       class="cls-2"
       d="M 158.17,164.67 A 29.17,29.17 0 0 0 132.48,196 70.15,70.15 0 0 0 179.89,171 29.11,29.11 0 0 0 158.17,164.67 Z"
       id="path158" />
    <path
       class="cls-3"
       d="m 74.7,157.33 a 21.64,21.64 0 0 0 -18,-18.86 70,70 0 0 0 15.1,32.47 21.54,21.54 0 0 0 2.9,-13.61 z"
       id="path160" />
    <path
       class="cls-4"
       d="m 100.7,147.8 -23.64,28.8 a 70,70 0 0 0 37.15,18.75 l 17.88,-21.79 z"
       id="path162" />
    <path
       class="cls-5"
       d="m 157.94,157.65 29.28,2.65 a 70,70 0 0 0 8.92,-34.3 71,71 0 0 0 -1,-11.84 l -33,-3 z"
       id="path164" />
    <path
       class="cls-4"
       d="m 161.55,65.49 a 69.74,69.74 0 0 0 -30,-9.49 l 3.11,15.06 z"
       id="path166" />
    <path
       class="cls-3"
       d="M 193.12,105.64 A 70,70 0 0 0 178.76,79.79 l -1.21,25.1 z"
       id="path168" />
    <path
       class="cls-2"
       d="M 112.43,95 89.1,66.12 a 70.22,70.22 0 0 0 -33.38,55.51 l 9.38,11.61 z"
       id="path170" />
    <circle
       class="cls-3"
       cx="125.85"
       cy="126.04"
       r="28"
       transform="rotate(-67.5,125.85562,126.03674)"
       id="circle172" />
    <circle
       class="cls-6"
       cx="156.64"
       cy="88.139999"
       r="16.379999"
       transform="rotate(-36.36,156.64614,88.14568)"
       id="circle174" />
    <path
       class="cls-5"
       d="M 105.1,75 A 12.4,12.4 0 1 1 118.85,85.88 12.4,12.4 0 0 1 105.1,75 Z"
       id="path176" />
    <path
       class="cls-6"
       d="m 85.67,149.56 a 9.4,9.4 0 1 1 8.25,-10.42 9.4,9.4 0 0 1 -8.25,10.42 z"
       id="path178" />
    <path
       class="cls-3"
       d="M 304.13,152.31 H 288.06 V 99.76 h 15.54 v 6 c 2.86,-5 9.31,-7.4 14.7,-7.4 13.22,0 19.14,9.41 19.14,20.93 v 33 h -16.07 v -30.22 c 0,-5.18 -2.75,-9.09 -8.57,-9.09 -5.29,0 -8.67,3.91 -8.67,9.2 z"
       id="path180" />
    <path
       class="cls-3"
       d="M 351,152.31 V 99.76 h 16 v 52.55 z"
       id="path182" />
    <path
       class="cls-3"
       d="m 414.51,115.62 a 22,22 0 0 0 -5.08,-0.53 c -6.45,0 -12.26,3.81 -12.26,14.28 v 22.94 H 381.1 V 99.76 h 15.54 v 7.09 c 2.75,-5.92 9.41,-7.62 13.64,-7.62 a 16.17,16.17 0 0 1 4.23,0.53 z"
       id="path184" />
    <path
       class="cls-3"
       d="m 252.28,98 a 28,28 0 1 0 28,28 28,28 0 0 0 -28,-28 z m 0,41 a 13,13 0 1 1 13,-13 13,13 0 0 1 -13,13 z"
       id="path186" />
    <path
       class="cls-3"
       d="m 448.28,98 a 28,28 0 1 0 28,28 28,28 0 0 0 -28,-28 z m 0,41 a 13,13 0 1 1 13,-13 13,13 0 0 1 -13,13 z"
       id="path188" />
  </g>
</svg>